<svg width="16" height="14" viewBox="0 0 16 14" fill="none" xmlns="http://www.w3.org/2000/svg">
<path d="M13.3599 10.238C15.0609 8.72 16.0009 7 16.0009 7C16.0009 7 13.0009 1.5 8.00094 1.5C7.04053 1.50331 6.09099 1.70342 5.21094 2.088L5.98094 2.859C6.62837 2.62315 7.31189 2.50168 8.00094 2.5C10.1209 2.5 11.8799 3.668 13.1689 4.957C13.7893 5.58069 14.3454 6.26513 14.8289 7C14.7709 7.087 14.7069 7.183 14.6339 7.288C14.2989 7.768 13.8039 8.408 13.1689 9.043C13.0039 9.208 12.8319 9.371 12.6519 9.529L13.3599 10.238Z" fill="#333333"/>
<path d="M11.2974 8.17635C11.5205 7.5522 11.5618 6.8775 11.4165 6.23077C11.2712 5.58405 10.9452 4.99188 10.4765 4.52317C10.0078 4.05447 9.41566 3.72849 8.76893 3.58318C8.12221 3.43787 7.44751 3.4792 6.82335 3.70235L7.64635 4.52535C8.03066 4.47035 8.4225 4.5056 8.79083 4.62832C9.15915 4.75104 9.49383 4.95785 9.76834 5.23237C10.0429 5.50688 10.2497 5.84156 10.3724 6.20988C10.4951 6.5782 10.5304 6.97004 10.4754 7.35435L11.2974 8.17635ZM8.35435 9.47535L9.17635 10.2974C8.5522 10.5205 7.8775 10.5618 7.23077 10.4165C6.58405 10.2712 5.99188 9.94524 5.52317 9.47654C5.05447 9.00783 4.72849 8.41566 4.58318 7.76893C4.43787 7.12221 4.4792 6.44751 4.70235 5.82335L5.52535 6.64635C5.47035 7.03066 5.5056 7.4225 5.62832 7.79083C5.75104 8.15915 5.95785 8.49383 6.23237 8.76834C6.50688 9.04286 6.84156 9.24967 7.20988 9.37239C7.5782 9.49511 7.97004 9.53036 8.35435 9.47535Z" fill="#333333"/>
<path d="M3.35 4.47048C3.17 4.63048 2.997 4.79248 2.832 4.95748C2.21165 5.58117 1.65552 6.26561 1.172 7.00048L1.367 7.28848C1.702 7.76848 2.197 8.40848 2.832 9.04348C4.121 10.3325 5.881 11.5005 8 11.5005C8.716 11.5005 9.39 11.3675 10.02 11.1405L10.79 11.9125C9.90994 12.297 8.9604 12.4971 8 12.5005C3 12.5005 0 7.00048 0 7.00048C0 7.00048 0.939 5.27948 2.641 3.76248L3.349 4.47148L3.35 4.47048ZM13.646 13.3545L1.646 1.35448L2.354 0.646484L14.354 12.6465L13.646 13.3545Z" fill="#333333"/>
</svg>
