<svg width="16" height="12" viewBox="0 0 16 12" fill="none" xmlns="http://www.w3.org/2000/svg">
<path d="M15.8267 5.37928C14.9558 4.11722 11.8456 0 8.00665 0C4.16772 0.000144309 1.05748 4.11722 0.18661 5.37928C-0.0622033 5.73098 -0.0622033 6.24824 0.18661 6.62072C1.05751 7.88278 4.16772 12 8.00665 12C11.8456 12 14.9558 7.88278 15.8267 6.62072C16.0578 6.26902 16.0578 5.731 15.8267 5.37928V5.37928ZM8.00665 10.7586C4.73645 10.7586 1.91057 7.07582 1.12857 5.99996C1.89274 4.90342 4.73645 1.24137 8.00665 1.24137C11.2768 1.24137 14.1027 4.90345 14.8847 5.99996C14.1027 7.09651 11.2768 10.7586 8.00665 10.7586Z" fill="#333333"/>
<path d="M8 3C6.34834 3 5 4.34834 5 6C5 7.65166 6.34834 9 8 9C9.65166 9 11 7.65166 11 6C11 4.34834 9.65166 3 8 3ZM8 7.98876C6.90455 7.98876 6.0113 7.09551 6.0113 6.00006C6.0113 4.90462 6.90455 4.01136 8 4.01136C9.09545 4.01136 9.9887 4.90462 9.9887 6.00006C9.9887 7.09551 9.09545 7.98876 8 7.98876V7.98876Z" fill="#333333"/>
</svg>
